<svg id="Capa_1" enable-background="new 0 0 512 512" height="512" viewBox="0 0 512 512" width="512" xmlns="http://www.w3.org/2000/svg"><g><path d="m486.417 196.658v93.1l-36.812 5.681c-5.039 20.002-12.919 39.02-23.533 56.765l22.035 30.07-65.832 65.832-30.07-22.035c-17.744 10.614-36.763 18.494-56.765 23.533l-5.681 36.812h-93.1l-5.681-36.812c-19.992-5.039-39.011-12.919-56.755-23.533l-30.07 22.035-65.833-65.831 22.035-30.07c-10.614-17.744-18.503-36.763-23.533-56.765l-36.822-5.681v-93.1l36.822-5.681c5.03-19.992 12.919-39.011 23.533-56.755l-22.035-30.07 65.832-65.832 30.07 22.035c17.744-10.614 36.763-18.503 56.755-23.533l5.681-36.823h93.1l5.681 36.822c20.002 5.029 39.02 12.919 56.765 23.533l30.07-22.035 65.832 65.832-22.035 30.07c10.614 17.744 18.494 36.763 23.533 56.755z" fill="#4c5c72"/><path d="m486.417 196.658v93.1l-36.812 5.681c-5.039 20.002-12.919 39.02-23.533 56.765l22.035 30.07-65.832 65.832-30.07-22.035c-17.744 10.614-36.763 18.494-56.765 23.533l-5.681 36.812h-46.55v-486.416h46.55l5.681 36.822c20.002 5.029 39.02 12.919 56.765 23.533l30.07-22.035 65.832 65.832-22.035 30.07c10.614 17.744 18.494 36.763 23.533 56.755z" fill="#343941"/><path d="m376.973 246.01c0 73.867-59.888 133.755-133.765 133.755-73.867 0-133.755-59.888-133.755-133.755 0-73.877 59.888-133.765 133.755-133.765 73.877 0 133.765 59.888 133.765 133.765z" fill="#fff"/><path d="m376.973 246.01c0 73.867-59.888 133.755-133.765 133.755v-267.52c73.877 0 133.765 59.888 133.765 133.765z" fill="#d7e5f4"/><path d="m243.208 97.653c-81.796 0-148.347 66.552-148.347 148.357 0 81.796 66.551 148.348 148.347 148.348 81.806 0 148.357-66.552 148.357-148.348 0-81.805-66.551-148.357-148.357-148.357zm0 267.52c-65.705 0-119.162-53.457-119.162-119.163 0-65.715 53.457-119.172 119.162-119.172 65.715 0 119.172 53.457 119.172 119.172 0 65.705-53.457 119.163-119.172 119.163z" fill="#626d7f"/><path d="m330.306 246.01c0 48.019-39.069 87.098-87.098 87.098s-87.098-39.079-87.098-87.098c0-48.029 39.069-87.108 87.098-87.108s87.098 39.079 87.098 87.108z" fill="#626d7f"/><path d="m243.208 333.108v-174.206c48.029 0 87.098 39.079 87.098 87.108 0 48.019-39.069 87.098-87.098 87.098z" fill="#464f53"/><path d="m391.565 246.01c0 81.796-66.551 148.348-148.357 148.348v-29.185c65.715 0 119.172-53.457 119.172-119.163 0-65.715-53.457-119.172-119.172-119.172v-29.185c81.806 0 148.357 66.552 148.357 148.357z" fill="#464f53"/><circle cx="370.82" cy="370.82" fill="#80c200" r="141.18"/><path d="m512 370.82c0 77.85-63.33 141.18-141.18 141.18v-282.36c77.85 0 141.18 63.33 141.18 141.18z" fill="#01b71d"/><path d="m425.82 355.82v30h-69.93v-98.55h30v68.55z" fill="#f0f8ff"/><path d="m425.82 355.82v30h-55v-98.55h15.07v68.55z" fill="#d7e5f4"/></g></svg>